<svg width="36" height="36" viewBox="0 0 36 36" fill="none" xmlns="http://www.w3.org/2000/svg">
<path d="M32.0598 2.74774C31.6097 2.76759 31.1904 2.89869 30.8212 3.04792C30.4754 3.18702 29.1542 3.75371 27.073 4.64617C24.9901 5.53942 22.2321 6.72353 19.29 7.98872C13.4058 10.5191 6.79047 13.3675 3.40207 14.8253C3.27466 14.8801 2.83007 15.0221 2.3582 15.3905C1.88633 15.7588 1.38464 16.5222 1.38464 17.3727C1.38464 18.0586 1.71151 18.74 2.12292 19.1468C2.53434 19.5536 2.96968 19.7545 3.34258 19.9067C4.69557 20.4588 8.89182 22.176 9.68422 22.5001C9.96309 23.3544 11.4819 28.0006 11.8342 29.1393C12.0664 29.8907 12.2874 30.3613 12.5751 30.7348C12.719 30.9216 12.8863 31.0852 13.089 31.2135C13.17 31.2647 13.2588 31.3042 13.3486 31.3406L13.354 31.3433C13.3747 31.3516 13.3925 31.3657 13.4135 31.373C13.4531 31.3869 13.4795 31.3885 13.5325 31.4001C13.7434 31.4682 13.9563 31.511 14.1464 31.511C14.9566 31.511 15.4526 31.0647 15.4526 31.0647L15.4823 31.0431L19.6497 27.4382L24.7041 32.2195C24.7752 32.3201 25.4389 33.2309 26.9027 33.2309C27.7718 33.2309 28.4612 32.7948 28.9039 32.3304C29.3465 31.8659 29.6223 31.378 29.7395 30.7646V30.7619C29.8492 30.1822 34.5072 6.26877 34.5072 6.26877L34.4991 6.30122C34.6355 5.67882 34.6712 5.09918 34.5208 4.52718C34.3703 3.95519 33.9738 3.40753 33.4823 3.11282C32.9908 2.81818 32.5099 2.72788 32.0598 2.74774ZM31.8002 5.64137C31.7936 5.68178 31.8052 5.66146 31.7948 5.70897L31.7921 5.7252L31.7894 5.74143C31.7894 5.74143 27.189 29.349 27.019 30.248C27.0314 30.1801 26.9745 30.3151 26.9162 30.3968C26.8337 30.3399 26.6647 30.267 26.6647 30.267L26.6376 30.2372L19.7335 23.7063L14.8522 27.925L16.3044 22.1107C16.3044 22.1107 25.3822 12.7138 25.9291 12.1669C26.3694 11.7294 26.4619 11.5768 26.4619 11.4259C26.4619 11.2238 26.3565 11.0771 26.1211 11.0771C25.9093 11.0771 25.6244 11.283 25.4721 11.3799C23.4878 12.6449 14.7764 17.722 10.8714 19.9932C10.2509 19.7393 5.93956 17.9745 4.47839 17.3781C4.48946 17.3733 4.48581 17.375 4.49732 17.37C7.88661 15.9118 14.4992 13.0635 20.3825 10.5335C23.3242 9.26848 26.0843 8.08347 28.1656 7.19095C30.2148 6.31217 31.6387 5.70737 31.8002 5.64137Z" fill="white"/>
</svg>
